<svg width="26" height="25" viewBox="0 0 26 25" fill="none" xmlns="http://www.w3.org/2000/svg">
<path d="M13.3594 20.2051C11.9792 20.2051 10.778 19.9186 9.75586 19.3457C8.73372 18.7663 7.94271 17.9492 7.38281 16.8945C6.82943 15.8333 6.55273 14.5801 6.55273 13.1348V12.6562C6.55273 11.276 6.81966 10.0553 7.35352 8.99414C7.89388 7.92643 8.66211 7.08984 9.6582 6.48438C10.6543 5.87891 11.8392 5.57617 13.2129 5.57617C14.1764 5.57617 15.0781 5.71289 15.918 5.98633C16.7643 6.25977 17.5195 6.67643 18.1836 7.23633V10.6738H16.0645L15.7715 8.51562C15.5566 8.35938 15.3223 8.22591 15.0684 8.11523C14.8145 8.00456 14.5378 7.91992 14.2383 7.86133C13.9453 7.80273 13.6263 7.77344 13.2812 7.77344C12.474 7.77344 11.7806 7.97201 11.2012 8.36914C10.6217 8.76628 10.1758 9.32943 9.86328 10.0586C9.55729 10.7812 9.4043 11.6406 9.4043 12.6367V13.1348C9.4043 14.1309 9.56706 14.9935 9.89258 15.7227C10.2181 16.4518 10.6803 17.0182 11.2793 17.4219C11.8783 17.819 12.5879 18.0176 13.4082 18.0176C13.8184 18.0176 14.2285 17.972 14.6387 17.8809C15.0553 17.7832 15.4329 17.6595 15.7715 17.5098L16.0645 15.5078H18.1836V18.9062C17.6302 19.2708 16.9401 19.5801 16.1133 19.834C15.2865 20.0814 14.3685 20.2051 13.3594 20.2051Z" fill="#FFFEFE"/>
<circle cx="13.5" cy="12.5" r="12" stroke="#FFFEFE"/>
</svg>
