<svg width="580" height="151" viewBox="0 0 580 151" fill="none" xmlns="http://www.w3.org/2000/svg">
<rect width="580" height="151" fill="#FFFEFE"/>
<rect x="472" y="35" width="80" height="80" rx="2" fill="#CD1E1E"/>
<path d="M539.896 104H520.996L517.596 89.6C517.463 89.0667 517.229 88.1667 516.896 86.9C516.629 85.5667 516.296 84.6 515.896 84C515.496 83.3333 514.929 82.9 514.196 82.7C512.329 82.7667 509.596 82.8 505.996 82.8V104H487.996V47.5C496.063 46.9 503.596 46.6 510.596 46.6C516.929 46.6 522.063 47.1333 525.996 48.2C529.929 49.2 532.863 50.9667 534.796 53.5C536.796 55.9667 537.796 59.3667 537.796 63.7C537.796 67.7667 536.863 70.9667 534.996 73.3C533.129 75.5667 530.129 76.9333 525.996 77.4V78C528.329 78.2 530.263 78.9667 531.796 80.3C533.396 81.5667 534.463 83.2 534.996 85.2L539.896 104ZM505.996 71.5C506.596 71.5667 507.763 71.6 509.496 71.6C514.629 71.6 517.629 71.1667 518.496 70.3C519.296 69.5 519.696 67.6333 519.696 64.7C519.696 61.9667 518.963 60.1 517.496 59.1C516.096 58.1 513.763 57.6 510.496 57.6C509.763 57.6 508.263 57.6667 505.996 57.8V71.5Z" fill="#FFFEFE"/>
<rect x="382" y="35" width="80" height="80" rx="2" fill="#CD1E1E"/>
<path d="M430.264 91.5H413.664L410.664 104H392.264L410.664 47H434.164L451.764 104H433.264L430.264 91.5ZM421.864 59.3L415.964 80.4H427.864L422.264 59.3H421.864Z" fill="#FFFEFE"/>
<rect x="292" y="35" width="80" height="80" rx="2" fill="#CD1E1E"/>
<path d="M353.565 102.1C351.099 103.167 348.232 103.933 344.965 104.4C341.699 104.867 338.665 105.1 335.865 105.1C326.799 105.1 319.699 102.733 314.565 98C309.432 93.2667 306.865 86 306.865 76.2C306.865 66.2 309.565 58.7333 314.965 53.8C320.365 48.8 327.965 46.3 337.765 46.3C342.432 46.3 347.299 46.9333 352.365 48.2C352.365 49.5333 352.232 51.5333 351.965 54.2C351.699 56.8 351.432 58.6333 351.165 59.7H344.865C340.265 59.7 336.632 59.8 333.965 60C331.365 60.1333 329.799 60.4333 329.265 60.9C328.265 61.8333 327.499 63.7333 326.965 66.6C326.432 69.4 326.165 72.1 326.165 74.7C326.165 79.2333 326.732 82.7333 327.865 85.2C328.999 87.6 330.432 89.2 332.165 90C333.832 90.8 336.599 91.2 340.465 91.2C343.532 91.2 347.532 90.9333 352.465 90.4L353.565 102.1Z" fill="#FFFEFE"/>
<rect x="202" y="35" width="80" height="80" rx="2" fill="#CD1E1E"/>
<path d="M267.65 72.4V100.9C263.183 102.367 258.95 103.433 254.95 104.1C250.95 104.767 247.583 105.1 244.85 105.1C235.783 105.1 228.683 102.733 223.55 98C218.416 93.2667 215.85 86 215.85 76.2C215.85 66.2 218.55 58.7333 223.95 53.8C229.35 48.8 236.95 46.3 246.75 46.3C251.883 46.3 258.05 47.0667 265.25 48.6C265.25 49.9333 265.116 51.9333 264.85 54.6C264.583 57.2 264.316 59.0333 264.05 60.1L260.45 60C256.05 59.8667 252.616 59.8 250.15 59.8C242.75 59.8 238.716 60.2333 238.05 61.1C236.983 62.3667 236.216 64.3333 235.75 67C235.35 69.6667 235.15 72.2333 235.15 74.7C235.15 79.1667 235.65 82.6333 236.65 85.1C237.65 87.5667 239.183 89.3 241.25 90.3C243.316 91.3 246.116 91.8 249.65 91.8H250.05V72.4H267.65Z" fill="#FFFEFE"/>
<rect x="112" y="35" width="80" height="80" rx="2" fill="#CD1E1E"/>
<path d="M133.021 47H151.021V90.8H174.321V104H133.021V47Z" fill="#FFFEFE"/>
<rect x="22" y="35" width="80" height="80" rx="2" fill="#CD1E1E"/>
<path d="M70.2637 91.5H53.6637L50.6637 104H32.2637L50.6637 47H74.1637L91.7637 104H73.2637L70.2637 91.5ZM61.8637 59.3L55.9637 80.4H67.8637L62.2637 59.3H61.8637Z" fill="#FFFEFE"/>
</svg>
